<svg xmlns="http://www.w3.org/2000/svg" viewBox="0 0 293.18 528.19">
<defs>
<style>.cls-1{fill:#d12d36;}.cls-2{fill:#232323;}
</style></defs>
<g id="Calque_2" data-name="Calque 2">
<g id="Short_Black_Red_White" data-name="Short Black&amp;Red White">
<path class="cls-1" d="M71.72,495.4a3.13,3.13,0,0,1,3.12-3.13H87c8.51,0,12.28,4.74,12.28,11.2S95.41,514.73,87,514.73H75.6v10.82a1.94,1.94,0,0,1-1.94,1.94h0a1.94,1.94,0,0,1-1.94-1.94ZM87,511.17c6.09,0,8.3-3.33,8.3-7.7s-2.21-7.64-8.3-7.64H75.6v15.34Z"/>
<path class="cls-1" d="M101.93,514.19c0-8.08,5.92-14,14.32-14s14.33,5.92,14.33,14-5.93,14-14.33,14S101.93,522.27,101.93,514.19Zm25,0a10.67,10.67,0,1,0-10.67,10.66A10.24,10.24,0,0,0,126.92,514.19Z"/>
<path class="cls-1" d="M137.61,489.26h0a1.81,1.81,0,0,1,1.8,1.8v21.73l13.65-11.52a1.69,1.69,0,0,1,1.05-.38h0a1.63,1.63,0,0,1,1,2.88l-11.93,10,12.48,10.75a1.66,1.66,0,0,1-1.08,2.93h0a1.65,1.65,0,0,1-1.1-.41l-14.12-12.24v10.85a1.81,1.81,0,0,1-1.8,1.8h0a1.81,1.81,0,0,1-1.81-1.8V491.06A1.81,1.81,0,0,1,137.61,489.26Z"/>
<path class="cls-1" d="M160.3,514.19c0-8.08,5.93-14,14.33-14s14.21,5.92,14.21,14h0a1.18,1.18,0,0,1-1.18,1.18H164c.49,5.55,4.63,9.48,10.61,9.48,3.85,0,6.89-1.45,8.7-4.06a1.7,1.7,0,0,1,1.41-.73h0a1.74,1.74,0,0,1,1.36,2.81,14,14,0,0,1-11.47,5.32C166.23,528.19,160.3,522.27,160.3,514.19Zm24.78-2.05c-.87-5.38-5.07-8.61-10.45-8.61-5.55,0-9.69,3.39-10.5,8.61Z"/>
<path class="cls-1" d="M215.39,511.61V512a1.78,1.78,0,0,1-3.56,0v-.41c0-5.55-3.06-8-7.59-8s-7.59,2.47-7.59,8v14.14a1.8,1.8,0,1,1-3.6,0V511.55c0-7.65,4.58-11.36,11.19-11.36S215.39,503.9,215.39,511.61Z"/>
<path class="cls-1" d="M146.58,239.72h0a7,7,0,0,1-5.73-3l-14-20.22a7,7,0,0,1,0-7.95l14-20.22a7,7,0,0,1,5.73-3h0a7,7,0,0,1,5.73,3l14,20.22a7,7,0,0,1,0,8l-14,20.21A7,7,0,0,1,146.58,239.72Zm-10.79-27.19,10.79,15.55,10.81-15.56L146.58,197Z"/>
<path class="cls-2" d="M209,127.27a29.28,29.28,0,0,1-13.84,3.46c-8,0-16.44-3.19-24.32-9.43a5.85,5.85,0,1,1,7.25-9.18c8.94,7.06,18,8.77,25.42,4.81,7.23-3.85,11.63-12.53,10.94-21.59-1.13-15-40.68-56.46-67.88-81.57h0C119.38,38.88,79.84,80.31,78.7,95.34c-.68,9.06,3.72,17.74,11,21.59,7.44,4,16.47,2.25,25.42-4.81a5.85,5.85,0,1,1,7.25,9.18c-7.9,6.24-16.29,9.43-24.32,9.43a29.34,29.34,0,0,1-13.85-3.46C72.88,121.27,66,108.08,67,94.46,69,68.87,135.13,8.33,142.66,1.51l0,0a7.13,7.13,0,0,1,.63-.49l.33-.2.11-.07a4.44,4.44,0,0,1,.49-.24l.46-.18a7,7,0,0,1,.69-.18A5.71,5.71,0,0,1,146.58,0h0l.59,0,.59.09a5,5,0,0,1,.52.14.2.2,0,0,1,.11,0l.5.18a.07.07,0,0,1,.06,0,4.37,4.37,0,0,1,.43.22.17.17,0,0,1,.11.06,5.48,5.48,0,0,1,.9.64l.11.09c7.54,6.82,73.71,67.36,75.64,92.95C227.17,108.08,220.29,121.27,209,127.27Z"/>
<path class="cls-2" d="M147,1.42a5.48,5.48,0,0,0-.9-.64A4.5,4.5,0,0,1,147,1.42Z"/>
<path class="cls-1" d="M146.59,377.08l-3.33-2.31c-7.47-5.17-72.9-51.55-72.9-87.58,0-20.31,12.52-38.74,30.46-44.83,15.86-5.38,32.25-.13,45.77,14.41,13.53-14.54,29.91-19.79,45.77-14.41,17.94,6.09,30.46,24.52,30.46,44.83,0,36-65.44,82.41-72.9,87.58ZM113.1,252a26.51,26.51,0,0,0-8.53,1.43c-13,4.42-22.51,18.62-22.51,33.74,0,24,43.81,60.62,64.53,75.6,20.72-15,64.53-51.62,64.53-75.6,0-15.12-9.47-29.32-22.52-33.74-12.87-4.36-26.13,1.3-37.37,16l-4.64,6.06-4.65-6.06C133.18,258,123.18,252,113.1,252Z"/>
<path class="cls-2" d="M293.18,178.39c-.06,24.55-13.94,46-35.39,54.69a53.94,53.94,0,0,1-20.4,4c-17.88,0-36.25-8.77-52.57-25.58a125.13,125.13,0,0,1-29-49.08,346,346,0,0,1-9.23-35.19,334.5,334.5,0,0,1-9.22,35.19,125.13,125.13,0,0,1-29,49.08C92,228.31,73.66,237.08,55.79,237.08a53.94,53.94,0,0,1-20.4-4C13.94,224.41.06,202.94,0,178.39c0-19.85,6.44-35.24,19.24-45.76,10.16-8.35,21.94-11.56,30-12.79A5.85,5.85,0,1,1,51,131.41c-6.64,1-16.25,3.61-24.36,10.27-10,8.17-15,20.52-15,36.69,0,19.76,11.06,37,28.06,43.86,19.1,7.72,41,.85,60.19-18.88a113.5,113.5,0,0,0,26.25-44.48c9.63-30.23,14.51-59.52,14.51-87.08a5.86,5.86,0,0,1,4.14-5.59,5.93,5.93,0,0,1,1.75-.26,4.66,4.66,0,0,1,1.13.13,5.84,5.84,0,0,1,4.72,5.72c0,27.56,4.88,56.86,14.51,87.08a113.38,113.38,0,0,0,26.25,44.48c19.16,19.73,41.09,26.6,60.17,18.88,17-6.87,28-24.1,28.08-43.86,0-16.17-5-28.52-15-36.69-8.1-6.66-17.72-9.26-24.35-10.27a5.85,5.85,0,1,1,1.75-11.57c8.1,1.23,19.87,4.44,30,12.79C286.74,143.15,293.21,158.54,293.18,178.39Z"/>
<path class="cls-2" d="M47.23,400.08H90.5A3.52,3.52,0,0,1,94,403.61h0a3.52,3.52,0,0,1-3.52,3.52h-40v23.8H84.31a3.52,3.52,0,0,1,3.52,3.53h0A3.52,3.52,0,0,1,84.31,438H50.47v24.87h40A3.52,3.52,0,0,1,94,466.37h0a3.52,3.52,0,0,1-3.52,3.53H47.23a4.45,4.45,0,0,1-4.45-4.45V404.52A4.44,4.44,0,0,1,47.23,400.08Z"/>
<path class="cls-2" d="M108.17,435c0-20.92,15.37-36.29,37.15-36.29,15.19,0,27.33,7.47,33.2,19.15a3.84,3.84,0,0,1-3.39,5.61h0a3.81,3.81,0,0,1-3.42-2.12c-4.62-9.48-14.26-15.6-26.39-15.6-17.4,0-29.47,12.38-29.47,29.25s12.07,29.25,29.47,29.25c12.13,0,21.77-6.12,26.39-15.6a3.81,3.81,0,0,1,3.42-2.12h0a3.84,3.84,0,0,1,3.39,5.61c-5.87,11.68-18,19.15-33.2,19.15C123.54,471.28,108.17,455.91,108.17,435Z"/>
<path class="cls-2" d="M203.59,400.08h43.28a3.52,3.52,0,0,1,3.52,3.53h0a3.52,3.52,0,0,1-3.52,3.52h-40v23.8h33.84a3.52,3.52,0,0,1,3.52,3.53h0a3.52,3.52,0,0,1-3.52,3.52H206.84v24.87h40a3.52,3.52,0,0,1,3.52,3.52h0a3.52,3.52,0,0,1-3.52,3.53H203.59a4.44,4.44,0,0,1-4.44-4.44V404.52A4.44,4.44,0,0,1,203.59,400.08Z"/>
</g>
</g>
</svg>