<svg xmlns="http://www.w3.org/2000/svg" viewBox="0 0 587.83 377.08"><defs><style>.cls-1{fill:#d12d36;}.cls-2{fill:#232323;}.cls-3{fill:#292999;}</style></defs><g id="Calque_2" data-name="Calque 2"><g id="Black_Red_White" data-name="Black&amp;Red White"><path class="cls-1" d="M146.58,239.72h0a7,7,0,0,1-5.72-3l-14-20.22a7,7,0,0,1,0-7.95l14-20.22a7,7,0,0,1,5.72-3h0a7,7,0,0,1,5.72,3l14,20.22a7,7,0,0,1,0,8l-14,20.21A7,7,0,0,1,146.58,239.72Zm-10.8-27.19,10.8,15.55,10.8-15.56L146.58,197Z"/><path class="cls-1" d="M466.31,249.05a2.63,2.63,0,0,1,2.62-2.62h12.6c8.5,0,12.26,4.73,12.26,11.19s-3.82,11.23-12.26,11.23H470.18v10.81a1.93,1.93,0,0,1-1.93,1.94h0a1.94,1.94,0,0,1-1.94-1.94Zm15.27,16.26c6.08,0,8.28-3.34,8.28-7.69s-2.2-7.64-8.28-7.64h-11.4v15.33Z"/><path class="cls-1" d="M496.48,268.48c0-8.39,6.07-14.3,14.63-14.14A14.28,14.28,0,0,1,525,268.67v11.26a1.67,1.67,0,0,1-1.67,1.67h0a1.66,1.66,0,0,1-1.66-1.67V275c-1.89,4.73-6.29,7.26-11.46,7.26C502.77,282.3,496.48,277,496.48,268.48Zm24.95-.16A10.65,10.65,0,1,0,510.78,279,10.22,10.22,0,0,0,521.43,268.32Z"/><path class="cls-1" d="M552.62,266.06h0a.51.51,0,0,1,0,.22,1.78,1.78,0,0,1-3.55,0,.75.75,0,0,1,0-.22h0v-.38c0-5.54-3.07-8-7.58-8s-7.59,2.47-7.59,8v14.11a1.8,1.8,0,1,1-3.6,0V265.68c0-7.64,4.57-11.35,11.19-11.35s11.13,3.71,11.13,11.41Z"/><path class="cls-1" d="M556.22,247.13a2.68,2.68,0,0,1,2.74-2.74,2.73,2.73,0,0,1,2.74,2.74,2.68,2.68,0,0,1-2.74,2.74A2.73,2.73,0,0,1,556.22,247.13ZM559,255h0a1.8,1.8,0,0,1,1.8,1.8v23a1.81,1.81,0,0,1-1.8,1.8h0a1.8,1.8,0,0,1-1.8-1.8v-23A1.79,1.79,0,0,1,559,255Z"/><path class="cls-1" d="M568.29,274.12h0a1.85,1.85,0,0,1,1.73,1.27c.76,2.17,3.18,3.63,7,3.63,4.63,0,7.21-2.15,7.21-5,0-3.23-3.39-3.61-7.21-4.09-4.78-.59-10.21-1.34-10.21-7.21,0-5,3.92-8.38,10.16-8.38,5.08,0,8.56,2.28,9.73,5.57a1.78,1.78,0,0,1-1.68,2.38h0a1.82,1.82,0,0,1-1.7-1.24c-.74-2-3-3.43-6.41-3.43-4.08,0-6.5,2-6.5,4.78,0,3.28,3.44,3.66,7.2,4.14,4.14.54,10.27,1.18,10.27,7.21,0,5.05-4.24,8.55-10.86,8.55-5.34,0-9.08-2.32-10.37-5.71A1.82,1.82,0,0,1,568.29,274.12Z"/><path class="cls-1" d="M274.16,249.5a3.13,3.13,0,0,1,3.13-3.12H289.4c8.51,0,12.28,4.74,12.28,11.2s-3.82,11.25-12.28,11.25H278v10.83a1.94,1.94,0,0,1-1.94,1.94h0a1.94,1.94,0,0,1-1.94-1.94Zm15.3,15.78c6.08,0,8.29-3.34,8.29-7.7s-2.21-7.65-8.29-7.65H278v15.35Z"/><path class="cls-1" d="M304.37,268.3c0-8.08,5.93-14,14.33-14s14.32,5.93,14.32,14-5.92,14-14.32,14S304.37,276.37,304.37,268.3Zm25,0A10.67,10.67,0,1,0,318.7,279,10.24,10.24,0,0,0,329.36,268.3Z"/><path class="cls-1" d="M340.05,243.36h0a1.8,1.8,0,0,1,1.8,1.81V266.9l13.66-11.52a1.6,1.6,0,0,1,1.05-.39h0a1.63,1.63,0,0,1,1.05,2.88l-11.93,10.05,12.48,10.74a1.67,1.67,0,0,1-1.09,2.94h0a1.68,1.68,0,0,1-1.09-.41l-14.13-12.25v10.85a1.8,1.8,0,0,1-1.8,1.81h0a1.8,1.8,0,0,1-1.8-1.81V245.17A1.8,1.8,0,0,1,340.05,243.36Z"/><path class="cls-1" d="M362.75,268.3c0-8.08,5.92-14,14.32-14s14.22,5.93,14.22,14h0a1.18,1.18,0,0,1-1.19,1.18H366.46C367,275,371.1,279,377.07,279c3.86,0,6.89-1.45,8.7-4.06a1.72,1.72,0,0,1,1.41-.73h0a1.74,1.74,0,0,1,1.36,2.81,14.06,14.06,0,0,1-11.47,5.32C368.67,282.3,362.75,276.37,362.75,268.3Zm24.77-2.05c-.86-5.39-5.06-8.62-10.45-8.62-5.54,0-9.69,3.4-10.5,8.62Z"/><path class="cls-1" d="M417.84,265.71v.36a1.78,1.78,0,1,1-3.56,0v-.41c0-5.55-3.07-8-7.59-8s-7.59,2.47-7.59,8v14.13a1.81,1.81,0,1,1-3.61,0V265.66c0-7.65,4.58-11.36,11.2-11.36S417.84,258,417.84,265.71Z"/><path class="cls-2" d="M209,127.27a29.28,29.28,0,0,1-13.84,3.46c-8,0-16.43-3.19-24.32-9.43a5.85,5.85,0,1,1,7.26-9.18c8.93,7.06,18,8.77,25.41,4.81,7.24-3.85,11.63-12.53,10.95-21.59-1.13-15-40.69-56.46-67.89-81.57h0C119.38,38.88,79.83,80.31,78.69,95.34c-.68,9.06,3.72,17.74,11,21.59,7.43,4,16.46,2.25,25.41-4.81a5.85,5.85,0,1,1,7.26,9.18c-7.9,6.24-16.3,9.43-24.32,9.43a29.31,29.31,0,0,1-13.85-3.46C72.87,121.27,66,108.08,67,94.46,69,68.87,135.12,8.33,142.65,1.51l0,0a5.91,5.91,0,0,1,.63-.49,2.8,2.8,0,0,1,.32-.2.52.52,0,0,1,.12-.07,3.58,3.58,0,0,1,.48-.24l.46-.18c.23-.07.45-.13.69-.18A5.91,5.91,0,0,1,146.57,0h0a5.68,5.68,0,0,1,.59,0l.6.09a5,5,0,0,1,.52.14l.11,0,.49.18a.06.06,0,0,1,.06,0,3.48,3.48,0,0,1,.43.22.15.15,0,0,1,.11.06,5.08,5.08,0,0,1,.9.64.94.94,0,0,1,.12.09c7.54,6.82,73.7,67.36,75.63,92.95C227.17,108.08,220.28,121.27,209,127.27Z"/><path class="cls-3" d="M150.39,1.42a5.08,5.08,0,0,0-.9-.64A4.23,4.23,0,0,1,150.39,1.42Z"/><path class="cls-1" d="M146.58,377.08l-3.33-2.31c-7.46-5.17-72.9-51.55-72.9-87.58,0-20.31,12.52-38.74,30.46-44.83,15.86-5.38,32.25-.13,45.77,14.41,13.53-14.54,29.91-19.79,45.78-14.41,17.93,6.09,30.45,24.52,30.45,44.83,0,36-65.43,82.41-72.9,87.58ZM113.09,252a26.41,26.41,0,0,0-8.52,1.43c-13,4.42-22.52,18.62-22.52,33.74,0,24,43.81,60.62,64.53,75.6,20.73-15,64.53-51.62,64.53-75.6,0-15.12-9.47-29.32-22.51-33.74-12.87-4.36-26.14,1.3-37.37,16l-4.65,6.06-4.64-6.06C133.18,258,123.17,252,113.09,252Z"/><path class="cls-2" d="M293.18,178.39c-.06,24.55-13.94,46-35.39,54.69a53.94,53.94,0,0,1-20.4,4c-17.88,0-36.25-8.77-52.57-25.58a125.13,125.13,0,0,1-29-49.08,346,346,0,0,1-9.23-35.19,334.5,334.5,0,0,1-9.22,35.19,125.13,125.13,0,0,1-29,49.08C92,228.31,73.66,237.08,55.79,237.08a53.94,53.94,0,0,1-20.4-4C13.94,224.41.06,202.94,0,178.39c0-19.85,6.44-35.24,19.24-45.76,10.16-8.35,21.94-11.56,30-12.79A5.85,5.85,0,1,1,51,131.41c-6.64,1-16.25,3.61-24.36,10.27-10,8.17-15,20.52-15,36.69,0,19.76,11.06,37,28.06,43.86,19.1,7.72,41,.85,60.19-18.88a113.5,113.5,0,0,0,26.25-44.48c9.63-30.23,14.51-59.52,14.51-87.08a5.86,5.86,0,0,1,4.14-5.59,5.93,5.93,0,0,1,1.75-.26,4.66,4.66,0,0,1,1.13.13,5.84,5.84,0,0,1,4.72,5.72c0,27.56,4.88,56.86,14.51,87.08a113.38,113.38,0,0,0,26.25,44.48c19.16,19.73,41.09,26.6,60.17,18.88,17-6.87,28-24.1,28.08-43.86,0-16.17-5-28.52-15-36.69-8.1-6.66-17.72-9.26-24.35-10.27a5.85,5.85,0,1,1,1.75-11.57c8.1,1.23,19.87,4.44,30,12.79C286.74,143.15,293.21,158.54,293.18,178.39Z"/><path class="cls-2" d="M333.79,154.19h43.28a3.53,3.53,0,0,1,3.52,3.52h0a3.52,3.52,0,0,1-3.52,3.52H337V185h33.84a3.53,3.53,0,0,1,3.52,3.52h0a3.52,3.52,0,0,1-3.52,3.52H337V217h40a3.52,3.52,0,0,1,3.52,3.52h0a3.53,3.53,0,0,1-3.52,3.52H333.79a4.44,4.44,0,0,1-4.44-4.44V158.63A4.44,4.44,0,0,1,333.79,154.19Z"/><path class="cls-2" d="M394.73,189.1c0-20.93,15.38-36.3,37.15-36.3,15.2,0,27.34,7.48,33.21,19.15a3.85,3.85,0,0,1-3.4,5.62h0a3.79,3.79,0,0,1-3.41-2.13c-4.63-9.47-14.26-15.59-26.4-15.59-17.4,0-29.46,12.38-29.46,29.25s12.06,29.24,29.46,29.24c12.14,0,21.77-6.12,26.4-15.59a3.81,3.81,0,0,1,3.41-2.13h0a3.85,3.85,0,0,1,3.4,5.62c-5.87,11.67-18,19.15-33.21,19.15C410.11,225.39,394.73,210,394.73,189.1Z"/><path class="cls-2" d="M490.16,154.19h43.28a3.53,3.53,0,0,1,3.52,3.52h0a3.52,3.52,0,0,1-3.52,3.52h-40V185h33.84a3.53,3.53,0,0,1,3.52,3.52h0a3.52,3.52,0,0,1-3.52,3.52H493.41V217h40a3.52,3.52,0,0,1,3.52,3.52h0a3.53,3.53,0,0,1-3.52,3.52H490.16a4.43,4.43,0,0,1-4.44-4.43V158.63A4.44,4.44,0,0,1,490.16,154.19Z"/><path class="cls-2" d="M450.88,266.27a2.11,2.11,0,0,1-2.11,2.11H435.38a2.11,2.11,0,1,1,0-4.21h13.39A2.1,2.1,0,0,1,450.88,266.27Z"/></g></g></svg>